<?xml version="1.0" encoding="UTF-8"?>
<svg xmlns="http://www.w3.org/2000/svg" xmlns:xlink="http://www.w3.org/1999/xlink" width="218.775" height="103.89" viewBox="0 0 218.775 103.89">
  <defs>
    <clipPath id="a">
      <rect width="218.775" height="103.89" fill="none"></rect>
    </clipPath>
  </defs>
  <g clip-path="url(#a)">
    <path d="M8.421,25.7h.2c1.332-4.438,6.907-8.032,13.079-7.771V20.46a11.534,11.534,0,0,0-9.434,3.315C9.747,26.363,8.688,28.489,8.421,33.6V52.263H5.895V18.132H8.421Z" transform="translate(-1.596 -4.85)" fill="#fff"></path>
    <path d="M29.365,35.313c-.13,8.037,4.123,15.338,12.555,15.338,6.44,0,11.018-3.841,12.215-10.154h2.52c-1.326,7.964-6.638,12.349-14.735,12.349-9.963,0-15.213-7.836-15.077-17.268-.136-9.356,4.782-18.456,15.077-18.456,10.691,0,15.472,8.431,15,18.192ZM54.4,33.121c-.141-7.172-4.649-13.808-12.483-13.808-7.574,0-12.023,7.037-12.555,13.808Z" transform="translate(-7.266 -4.635)" fill="#fff"></path>
    <path d="M98.935,45.742c0,1.993,0,4.11,2.251,4.11a10.238,10.238,0,0,0,1.858-.2v2.13a11.112,11.112,0,0,1-2.053.268c-3.986,0-4.582-2.194-4.582-4.973v-1.8h-.134c-1.6,4.04-6.179,7.567-12.688,7.567-6.436,0-11.416-2.458-11.416-9.631,0-7.97,6.907-9.623,12.546-10.093C96,32.327,96.477,31.6,96.477,26.016c0-1.521-1.731-6.7-9.5-6.7-6.112,0-10.162,3.186-10.495,9.092H73.967c.325-7.5,4.975-11.285,13.011-11.285,5.973,0,11.957,1.856,11.957,8.9ZM96.408,32.656c-1.992,2.261-7.438,2-12.352,2.656-5.982.664-9.36,2.795-9.36,7.9,0,4.12,2.989,7.437,8.962,7.437,11.482,0,12.75-9.825,12.75-11.627Z" transform="translate(-19.536 -4.634)" fill="#fff"></path>
    <path d="M142.615,40.112h-.131c-2.8,5.374-6.973,8.1-13.086,8.1-10.288,0-14.741-8.369-14.741-17.8,0-10.091,4.916-17.923,15.2-17.923,5.57,0,10.826,3.057,12.622,8.431h.131V0h2.521V47.413h-2.521Zm-.071-9.7c0-7.96-3.919-15.73-12.682-15.73-9.03,0-12.685,7.5-12.685,15.73,0,8.037,3.99,15.607,12.749,15.607,8.636,0,12.618-7.771,12.618-15.607" transform="translate(-31.037)" fill="#fff"></path>
    <path d="M161.485,18.212h2.987l12.686,31.141,11.681-31.141H191.7L177.09,56c-1.394,3.32-2.52,5.906-3.99,7.041-1.787,1.386-4.11,1.518-7.966,1.518v-2.19c3.59,0,5.382-.464,7.111-2.186.993-1,1.918-3.522,3.512-8.035Z" transform="translate(-43.713 -4.93)" fill="#fff"></path>
    <path d="M32.793,122.934c-2.716.414-2.68-1.378-2.69-3.471V107.971c0-3.849.748-8.873-.952-12.442C26.5,89.946,17.672,89.753,12.543,90.8c-6.31,1.3-10.311,5.5-10.732,11.994-.036.569.535.708,1.01.708H5.347c.6,0,2.246-.3,2.314-1.14C8.2,95.973,13.544,92.977,19.622,95a6.705,6.705,0,0,1,4.681,6.744c-.088,3.466-1.717,3.832-4.937,4.237-4.382.533-8.714.5-12.86,2.213-7.491,3.1-9.135,14.13-1.642,18.249,5.937,3.261,14.574,1.732,19.563-2.972a5.783,5.783,0,0,0,.74,1.956c1.34,2.2,5.078,1.812,7.157,1.427.709-.125,1.9-.443,1.9-1.345v-2.122c0-.532-1.146-.5-1.434-.45M6.23,119.3a6.478,6.478,0,0,1,2.386-7.679c4.485-2.768,10.8-.859,15.663-2.685a30.942,30.942,0,0,1-.234,6.329,10.087,10.087,0,0,1-10.22,8.641c-3.317.071-6.413-1.4-7.594-4.606" transform="translate(0 -24.445)" fill="#fff"></path>
    <path d="M67.687,91.142c-4.32-.059-9.047,1.278-12.246,4.222V92.13c0-.581-.506-.788-1.033-.788h-2.52c-.583,0-2.306.311-2.306,1.175v34.137c0,.569.5.774,1.025.774h2.526c.579,0,2.309-.31,2.309-1.175V111.491a52.057,52.057,0,0,1,.236-6.481c.668-5.381,5.072-9.911,10.732-9.387.578.05,2.308-.35,2.308-1.18V91.916c0-.575-.5-.764-1.031-.774" transform="translate(-13.421 -24.671)" fill="#fff"></path>
    <path d="M96.317,87.321H89.945v-9.7a.966.966,0,0,0-1.063-.925H86.356c-.665,0-2.289.3-2.289,1.261v9.367H80.045c-.665,0-2.285.291-2.285,1.253v2.192a.963.963,0,0,0,1.069.92h5.237v18.881c0,2.8-.317,5.933.606,8.608,1.531,4.436,6.879,4.668,10.779,4.446.581-.034,1.866-.49,1.866-1.241v-2.2c0-.828-.826-.929-1.5-.915-1.793.036-3.862.163-5.086-1.383-.826-1.044-.791-2.753-.791-4.015V91.686h5.045c.988.151,2.394-.4,2.394-1.252V88.244a.961.961,0,0,0-1.066-.923" transform="translate(-21.049 -20.76)" fill="#fff"></path>
    <path d="M156.805,91.266h-2.791a2.209,2.209,0,0,0-2.285,1.253q-3.921,12.806-7.841,25.61-3.942-13.111-7.871-26.219a1.1,1.1,0,0,0-1.056-.643h-3.388c-.886,0-2,.291-2.285,1.253q-3.819,12.806-7.629,25.605-4.038-13.1-8.082-26.215a1.1,1.1,0,0,0-1.057-.643h-2.726c-.686,0-2.622.419-2.276,1.538q5.417,17.064,10.823,34.126a1.1,1.1,0,0,0,1.057.639h3.191a2.225,2.225,0,0,0,2.287-1.245q3.855-12.681,7.728-25.354,3.922,12.984,7.855,25.96a1.087,1.087,0,0,0,1.057.639h3.122a2.219,2.219,0,0,0,2.282-1.245q5.476-17.069,10.954-34.135c.193-.578-.642-.923-1.068-.923" transform="translate(-29.093 -24.705)" fill="#fff"></path>
    <path d="M244.98,90.882c-4.269-.061-9,1.233-12.184,4.15V92.115c0-.863-.816-1.043-1.525-1.043h-2.526c-.626,0-1.844.549-1.844,1.318v34.132c0,.855.81,1.036,1.526,1.036h2.526c.621,0,1.842-.552,1.842-1.321V111.475A51.665,51.665,0,0,1,233.03,105c.664-5.336,5.209-9.767,10.775-9.25.718.063,2.268-.344,2.268-1.307v-2.53a1.043,1.043,0,0,0-1.093-1.026" transform="translate(-61.421 -24.601)" fill="#fff"></path>
    <path d="M288.116,121.019q-7.856-10.513-15.714-21.012,7.2-6.151,14.419-12.3c.734-.627.088-1.044-.641-1.044-2.154,0-4.423-.405-6.149,1.084q-3.375,2.907-6.746,5.81-5.415,4.659-10.815,9.311V73.783c0-.373-.791-.408-1-.408h-2.148c-.969-.089-2.71.44-2.71,1.3v47.411c0,.378.78.4.991.4h2.523c.71,0,2.342-.354,2.342-1.3V108.779c0-.05-.008-.085-.011-.123.026-.023.054-.042.082-.064.879-.74,1.755-1.489,2.632-2.228.92-.772,1.839-1.559,2.759-2.339q4.155,5.57,8.316,11.128,2.43,3.259,4.853,6.5c1.049,1.4,3.19.833,4.791.833.512,0,2.916-.553,2.224-1.47" transform="translate(-69.464 -19.859)" fill="#fff"></path>
    <path d="M172.943,111.041a18.024,18.024,0,1,1,18.02,18.029,18.017,18.017,0,0,1-18.02-18.029m3.659,0a14.361,14.361,0,1,0,14.361-14.353A14.374,14.374,0,0,0,176.6,111.041" transform="translate(-46.815 -25.18)" fill="#fff"></path>
    <path d="M190.406,115.312h5.3l-4.985,10.6L200.8,112.719h-5.712l4.568-8.733h-4.676Z" transform="translate(-51.542 -28.148)" fill="#fff"></path>
    <rect width="3.953" height="1.609" transform="translate(142.171 65.257)" fill="#fff"></rect>
    <rect width="5.429" height="2.448" transform="translate(141.434 61.872)" fill="#fff"></rect>
    <path d="M218.488,100.673,213.432,95.6l2.448-2.448,5.059,5.061Z" transform="translate(-57.775 -25.217)" fill="#fff"></path>
  </g>
</svg>
